main.ufo
<glyph name="period" format="2">
	<advance width="45" />
	<unicode hex="002E" />
	<outline>
		<contour>
			<point x="25" y="-1" />
			<point x="0" y="-1" />
			<point x="0" y="27" />
			<point x="25" y="27" />
		</contour>
	</outline>
</glyph>
<glyph name="A" format="2">
	<advance width="120" />
	<unicode hex="0041" />
	<outline>
		<contour>
			<point x="58" y="160" type="line" />
			<point x="19" y="0" type="line" />
			<point x="0" y="0" type="line" />
			<point x="40" y="160" type="line" />
		</contour>
		<contour>
			<point x="42" y="160" type="line" />
			<point x="60" y="160" type="line" />
			<point x="100" y="0" type="line" />
			<point x="81" y="0" type="line" />
		</contour>
		<contour>
			<point x="70" y="52" type="line" />
			<point x="30" y="52" type="line" />
			<point x="30" y="70" type="line" />
			<point x="70" y="70" type="line" />
		</contour>
	</outline>
</glyph>
<glyph name="B" format="2">
	<advance width="110" />
	<unicode hex="0042" />
	<outline>
		<contour>
			<point x="0" y="160" type="line" />
			<point x="20" y="160" type="line" />
			<point x="20" y="0" type="line" />
			<point x="0" y="0" type="line" />
		</contour>
		<contour>
			<point x="20" y="160" type="line" />
			<point x="50" y="160" type="line" />
			<point x="64" y="160" />
			<point x="85" y="139" />
			<point x="85" y="125" type="qcurve" />
			<point x="85" y="107" type="line" />
			<point x="85" y="93" />
			<point x="64" y="72" />
			<point x="50" y="72" type="qcurve" />
			<point x="20" y="72" type="line" />
			<point x="20" y="90" type="line" />
			<point x="52" y="90" type="line" />
			<point x="66" y="90" />
			<point x="66" y="105" type="qcurve" />
			<point x="66" y="127" type="line" />
			<point x="66" y="142" />
			<point x="51" y="142" type="qcurve" />
			<point x="20" y="142" type="line" />
		</contour>
		<contour>
			<point x="20" y="90" type="line" />
			<point x="55" y="90" type="line" />
			<point x="69" y="90" />
			<point x="90" y="69" />
			<point x="90" y="55" type="qcurve" />
			<point x="90" y="35" type="line" />
			<point x="90" y="21" />
			<point x="69" y="0" />
			<point x="55" y="0" type="qcurve" />
			<point x="20" y="0" type="line" />
			<point x="20" y="18" type="line" />
			<point x="56" y="18" type="line" />
			<point x="71" y="18" />
			<point x="71" y="33" type="qcurve" />
			<point x="71" y="57" type="line" />
			<point x="71" y="72" />
			<point x="56" y="72" type="qcurve" />
			<point x="20" y="72" type="line" />
		</contour>
	</outline>
</glyph>
<glyph name="D" format="2">
	<advance width="110" />
	<unicode hex="0044" />
	<outline>
		<contour>
			<point x="0" y="160" type="line" />
			<point x="20" y="160" type="line" />
			<point x="20" y="0" type="line" />
			<point x="0" y="0" type="line" />
		</contour>
		<contour>
			<point x="52" y="142" type="qcurve" />
			<point x="0" y="142" type="line" />
			<point x="0" y="160" type="line" />
			<point x="52" y="160" type="line" />
			<point x="68" y="160" />
			<point x="90" y="139" />
			<point x="90" y="123" type="qcurve" />
			<point x="90" y="80" type="line" />
			<point x="70" y="80" type="line" />
			<point x="70" y="125" type="line" />
			<point x="70" y="142" />
		</contour>
		<contour>
			<point x="52" y="18" type="line" />
			<point x="70" y="18" />
			<point x="70" y="35" type="qcurve" />
			<point x="70" y="80" type="line" />
			<point x="90" y="80" type="line" />
			<point x="90" y="37" type="line" />
			<point x="90" y="21" />
			<point x="68" y="0" />
			<point x="52" y="0" type="qcurve" />
			<point x="0" y="0" type="line" />
			<point x="0" y="18" type="line" />
		</contour>
	</outline>
</glyph>
<glyph name="F" format="2">
	<advance width="110" />
	<unicode hex="0046" />
	<outline>
		<contour>
			<point x="80" y="72" type="line" />
			<point x="20" y="72" type="line" />
			<point x="20" y="90" type="line" />
			<point x="80" y="90" type="line" />
		</contour>
		<contour>
			<point x="0" y="160" type="line" />
			<point x="20" y="160" type="line" />
			<point x="20" y="0" type="line" />
			<point x="0" y="0" type="line" />
		</contour>
		<contour>
			<point x="90" y="142" type="line" />
			<point x="20" y="142" type="line" />
			<point x="20" y="160" type="line" />
			<point x="90" y="160" type="line" />
		</contour>
	</outline>
</glyph>
<glyph name="G" format="2">
	<advance width="110" />
	<unicode hex="0047" />
	<outline>
		<contour>
			<point x="38" y="142" type="line" />
			<point x="20" y="142" />
			<point x="20" y="125" type="qcurve" />
			<point x="20" y="80" type="line" />
			<point x="0" y="80" type="line" />
			<point x="0" y="123" type="line" />
			<point x="0" y="139" />
			<point x="22" y="160" />
			<point x="38" y="160" type="qcurve" />
			<point x="85" y="160" type="line" />
			<point x="85" y="142" type="line" />
		</contour>
		<contour>
			<point x="38" y="18" type="qcurve" />
			<point x="45" y="18" type="line" />
			<point x="45" y="0" type="line" />
			<point x="38" y="0" type="line" />
			<point x="22" y="0" />
			<point x="0" y="21" />
			<point x="0" y="37" type="qcurve" />
			<point x="0" y="80" type="line" />
			<point x="20" y="80" type="line" />
			<point x="20" y="35" type="line" />
			<point x="20" y="18" />
		</contour>
		<contour>
			<point x="70" y="35" type="qcurve" />
			<point x="70" y="67" type="line" />
			<point x="70" y="72" />
			<point x="65" y="72" type="qcurve" />
			<point x="50" y="72" type="line" />
			<point x="50" y="90" type="line" />
			<point x="70" y="90" type="line" />
			<point x="90" y="90" />
			<point x="90" y="70" type="qcurve" />
			<point x="90" y="37" type="line" />
			<point x="90" y="21" />
			<point x="68" y="0" />
			<point x="52" y="0" type="qcurve" />
			<point x="45" y="0" type="line" />
			<point x="45" y="18" type="line" />
			<point x="52" y="18" type="line" />
			<point x="70" y="18" />
		</contour>
	</outline>
</glyph>
<glyph name="H" format="2">
	<advance width="110" />
	<unicode hex="0048" />
	<outline>
		<contour>
			<point x="70" y="72" type="line" />
			<point x="20" y="72" type="line" />
			<point x="20" y="90" type="line" />
			<point x="70" y="90" type="line" />
		</contour>
		<contour>
			<point x="0" y="160" type="line" />
			<point x="20" y="160" type="line" />
			<point x="20" y="0" type="line" />
			<point x="0" y="0" type="line" />
		</contour>
		<contour>
			<point x="70" y="160" type="line" />
			<point x="90" y="160" type="line" />
			<point x="90" y="0" type="line" />
			<point x="70" y="0" type="line" />
		</contour>
	</outline>
</glyph>
<glyph name="I" format="2">
	<advance width="80" />
	<unicode hex="0049" />
	<outline>
		<contour>
			<point x="60" y="142" type="line" />
			<point x="0" y="142" type="line" />
			<point x="0" y="160" type="line" />
			<point x="60" y="160" type="line" />
		</contour>
		<contour>
			<point x="60" y="18" type="line" />
			<point x="60" y="0" type="line" />
			<point x="0" y="0" type="line" />
			<point x="0" y="18" type="line" />
		</contour>
		<contour>
			<point x="20" y="160" type="line" />
			<point x="40" y="160" type="line" />
			<point x="40" y="0" type="line" />
			<point x="20" y="0" type="line" />
		</contour>
	</outline>
</glyph>
<glyph name="J" format="2">
	<advance width="90" />
	<unicode hex="004A" />
	<outline>
		<contour>
			<point x="70" y="142" type="line" />
			<point x="10" y="142" type="line" />
			<point x="10" y="160" type="line" />
			<point x="70" y="160" type="line" />
		</contour>
		<contour>
			<point x="30" y="40" type="qcurve" />
			<point x="30" y="160" type="line" />
			<point x="50" y="160" type="line" />
			<point x="50" y="40" type="line" />
			<point x="50" y="23" />
			<point x="27" y="0" />
			<point x="10" y="0" type="qcurve" />
			<point x="0" y="0" type="line" />
			<point x="0" y="18" type="line" />
			<point x="10" y="18" type="line" />
			<point x="18" y="18" />
			<point x="30" y="30" />
		</contour>
	</outline>
</glyph>
<glyph name="K" format="2">
	<advance width="110" />
	<unicode hex="004B" />
	<outline>
		<contour>
			<point x="0" y="160" type="line" />
			<point x="20" y="160" type="line" />
			<point x="20" y="0" type="line" />
			<point x="0" y="0" type="line" />
		</contour>
		<contour>
			<point x="90" y="160" type="line" />
			<point x="20" y="55" type="line" />
			<point x="8" y="68" type="line" />
			<point x="68" y="160" type="line" />
		</contour>
		<contour>
			<point x="68" y="0" type="line" />
			<point x="30" y="70" type="line" />
			<point x="40" y="85" type="line" />
			<point x="90" y="0" type="line" />
		</contour>
	</outline>
</glyph>
<glyph name="L" format="2">
	<advance width="110" />
	<unicode hex="004C" />
	<outline>
		<contour>
			<point x="0" y="18" type="line" />
			<point x="90" y="18" type="line" />
			<point x="90" y="0" type="line" />
			<point x="0" y="0" type="line" />
		</contour>
		<contour>
			<point x="0" y="160" type="line" />
			<point x="20" y="160" type="line" />
			<point x="20" y="0" type="line" />
			<point x="0" y="0" type="line" />
		</contour>
	</outline>
</glyph>
<glyph name="M" format="2">
	<advance width="140" />
	<unicode hex="004D" />
	<outline>
		<contour>
			<point x="53" y="60" type="line" />
			<point x="15" y="125" type="line" />
			<point x="20" y="160" type="line" />
			<point x="67" y="75" type="line" />
			<point x="67" y="60" type="line" />
		</contour>
		<contour>
			<point x="67" y="60" type="line" />
			<point x="53" y="60" type="line" />
			<point x="53" y="75" type="line" />
			<point x="100" y="160" type="line" />
			<point x="105" y="125" type="line" />
		</contour>
		<contour>
			<point x="0" y="160" type="line" />
			<point x="20" y="160" type="line" />
			<point x="18" y="121" type="line" />
			<point x="20" y="105" />
			<point x="20" y="60" type="qcurve" />
			<point x="20" y="0" type="line" />
			<point x="0" y="0" type="line" />
		</contour>
		<contour>
			<point x="120" y="160" type="line" />
			<point x="120" y="0" type="line" />
			<point x="100" y="0" type="line" />
			<point x="100" y="60" type="line" />
			<point x="102" y="121" />
			<point x="102" y="121" type="qcurve" />
			<point x="100" y="160" type="line" />
		</contour>
	</outline>
</glyph>
<glyph name="N" format="2">
	<advance width="110" />
	<unicode hex="004E" />
	<outline>
		<contour>
			<point x="0" y="160" type="line" />
			<point x="20" y="160" type="line" />
			<point x="18" y="121" type="line" />
			<point x="20" y="105" />
			<point x="20" y="60" type="qcurve" />
			<point x="20" y="0" type="line" />
			<point x="0" y="0" type="line" />
		</contour>
		<contour>
			<point x="90" y="0" type="line" />
			<point x="70" y="0" type="line" />
			<point x="72" y="39" type="line" />
			<point x="70" y="55" />
			<point x="70" y="100" type="qcurve" />
			<point x="70" y="160" type="line" />
			<point x="90" y="160" type="line" />
		</contour>
		<contour>
			<point x="15" y="125" type="line" />
			<point x="20" y="160" type="line" />
			<point x="75" y="35" type="line" />
			<point x="70" y="0" type="line" />
		</contour>
	</outline>
</glyph>
<glyph name="P" format="2">
	<advance width="110" />
	<unicode hex="0050" />
	<outline>
		<contour>
			<point x="0" y="160" type="line" />
			<point x="20" y="160" type="line" />
			<point x="20" y="0" type="line" />
			<point x="0" y="0" type="line" />
		</contour>
		<contour>
			<point x="20" y="160" type="line" />
			<point x="55" y="160" type="line" />
			<point x="69" y="160" />
			<point x="90" y="139" />
			<point x="90" y="125" type="qcurve" />
			<point x="90" y="107" type="line" />
			<point x="90" y="93" />
			<point x="69" y="72" />
			<point x="55" y="72" type="qcurve" />
			<point x="20" y="72" type="line" />
			<point x="20" y="90" type="line" />
			<point x="57" y="90" type="line" />
			<point x="71" y="90" />
			<point x="71" y="105" type="qcurve" />
			<point x="71" y="127" type="line" />
			<point x="71" y="142" />
			<point x="56" y="142" type="qcurve" />
			<point x="20" y="142" type="line" />
		</contour>
	</outline>
</glyph>
<glyph name="Q" format="2">
	<advance width="110" />
	<unicode hex="0051" />
	<outline>
		<contour>
			<point x="38" y="142" type="line" />
			<point x="20" y="142" />
			<point x="20" y="125" type="qcurve" />
			<point x="20" y="80" type="line" />
			<point x="0" y="80" type="line" />
			<point x="0" y="123" type="line" />
			<point x="0" y="139" />
			<point x="22" y="160" />
			<point x="38" y="160" type="qcurve" />
			<point x="45" y="160" type="line" />
			<point x="45" y="142" type="line" />
		</contour>
		<contour>
			<point x="52" y="18" type="line" />
			<point x="70" y="18" />
			<point x="70" y="35" type="qcurve" />
			<point x="70" y="80" type="line" />
			<point x="90" y="80" type="line" />
			<point x="90" y="37" type="line" />
			<point x="90" y="21" />
			<point x="68" y="0" />
			<point x="52" y="0" type="qcurve" />
			<point x="45" y="0" type="line" />
			<point x="45" y="18" type="line" />
		</contour>
		<contour>
			<point x="52" y="142" type="qcurve" />
			<point x="45" y="142" type="line" />
			<point x="45" y="160" type="line" />
			<point x="52" y="160" type="line" />
			<point x="68" y="160" />
			<point x="90" y="139" />
			<point x="90" y="123" type="qcurve" />
			<point x="90" y="80" type="line" />
			<point x="70" y="80" type="line" />
			<point x="70" y="125" type="line" />
			<point x="70" y="142" />
		</contour>
		<contour>
			<point x="38" y="18" type="qcurve" />
			<point x="45" y="18" type="line" />
			<point x="45" y="0" type="line" />
			<point x="38" y="0" type="line" />
			<point x="22" y="0" />
			<point x="0" y="21" />
			<point x="0" y="37" type="qcurve" />
			<point x="0" y="80" type="line" />
			<point x="20" y="80" type="line" />
			<point x="20" y="35" type="line" />
			<point x="20" y="18" />
		</contour>
		<contour>
			<point x="58" y="48" type="line" />
			<point x="90" y="-18" type="line" />
			<point x="72" y="-18" type="line" />
			<point x="39" y="48" type="line" />
		</contour>
	</outline>
</glyph>
<glyph name="S" format="2">
	<advance width="110" />
	<unicode hex="0053" />
	<outline>
		<contour>
			<point x="35" y="160" type="qcurve" />
			<point x="85" y="160" type="line" />
			<point x="85" y="142" type="line" />
			<point x="35" y="142" type="line" />
			<point x="19" y="142" />
			<point x="19" y="127" type="qcurve" />
			<point x="19" y="103" type="line" />
			<point x="19" y="92" />
			<point x="35" y="90" type="qcurve" />
			<point x="45" y="90" type="line" />
			<point x="45" y="72" type="line" />
			<point x="35" y="72" type="line" />
			<point x="0" y="74" />
			<point x="0" y="103" type="qcurve" />
			<point x="0" y="127" type="line" />
			<point x="0" y="142" />
			<point x="20" y="160" />
		</contour>
		<contour>
			<point x="55" y="0" type="qcurve" />
			<point x="5" y="0" type="line" />
			<point x="5" y="18" type="line" />
			<point x="55" y="18" type="line" />
			<point x="71" y="18" />
			<point x="71" y="33" type="qcurve" />
			<point x="71" y="59" type="line" />
			<point x="71" y="72" />
			<point x="55" y="72" type="qcurve" />
			<point x="45" y="72" type="line" />
			<point x="45" y="90" type="line" />
			<point x="55" y="90" type="line" />
			<point x="90" y="90" />
			<point x="90" y="59" type="qcurve" />
			<point x="90" y="33" type="line" />
			<point x="90" y="18" />
			<point x="70" y="0" />
		</contour>
	</outline>
</glyph>
<glyph name="T" format="2">
	<advance width="110" />
	<unicode hex="0054" />
	<outline>
		<contour>
			<point x="90" y="142" type="line" />
			<point x="0" y="142" type="line" />
			<point x="0" y="160" type="line" />
			<point x="90" y="160" type="line" />
		</contour>
		<contour>
			<point x="35" y="160" type="line" />
			<point x="55" y="160" type="line" />
			<point x="55" y="0" type="line" />
			<point x="35" y="0" type="line" />
		</contour>
	</outline>
</glyph>
<glyph name="U" format="2">
	<advance width="110" />
	<unicode hex="0055" />
	<outline>
		<contour>
			<point x="52" y="18" type="line" />
			<point x="70" y="18" />
			<point x="70" y="35" type="qcurve" />
			<point x="70" y="80" type="line" />
			<point x="90" y="80" type="line" />
			<point x="90" y="37" type="line" />
			<point x="90" y="21" />
			<point x="68" y="0" />
			<point x="52" y="0" type="qcurve" />
			<point x="45" y="0" type="line" />
			<point x="45" y="18" type="line" />
		</contour>
		<contour>
			<point x="38" y="18" type="qcurve" />
			<point x="45" y="18" type="line" />
			<point x="45" y="0" type="line" />
			<point x="38" y="0" type="line" />
			<point x="22" y="0" />
			<point x="0" y="21" />
			<point x="0" y="37" type="qcurve" />
			<point x="0" y="80" type="line" />
			<point x="20" y="80" type="line" />
			<point x="20" y="35" type="line" />
			<point x="20" y="18" />
		</contour>
		<contour>
			<point x="0" y="80" type="line" />
			<point x="0" y="160" type="line" />
			<point x="20" y="160" type="line" />
			<point x="20" y="80" type="line" />
		</contour>
		<contour>
			<point x="70" y="80" type="line" />
			<point x="70" y="160" type="line" />
			<point x="90" y="160" type="line" />
			<point x="90" y="80" type="line" />
		</contour>
	</outline>
</glyph>
<glyph name="V" format="2">
	<advance width="120" />
	<unicode hex="0056" />
	<outline>
		<contour>
			<point x="40" y="0" type="line" />
			<point x="0" y="160" type="line" />
			<point x="20" y="160" type="line" />
			<point x="44" y="60" type="line" />
			<point x="55" y="0" />
			<point x="55" y="0" type="qcurve" />
		</contour>
		<contour>
			<point x="60" y="0" type="line" />
			<point x="45" y="0" type="line" />
			<point x="50" y="40" />
			<point x="56" y="60" type="qcurve" />
			<point x="80" y="160" type="line" />
			<point x="100" y="160" type="line" />
		</contour>
	</outline>
</glyph>
<glyph name="W" format="2">
	<advance width="150" />
	<unicode hex="0057" />
	<outline>
		<contour>
			<point x="30" y="0" type="line" />
			<point x="0" y="160" type="line" />
			<point x="20" y="160" type="line" />
			<point x="36" y="60" type="line" />
			<point x="39" y="48" />
			<point x="40" y="18" />
			<point x="40" y="9" type="qcurve" />
			<point x="39" y="0" type="line" />
		</contour>
		<contour>
			<point x="100" y="0" type="line" />
			<point x="91" y="0" type="line" />
			<point x="88" y="34" />
			<point x="94" y="60" type="qcurve" />
			<point x="110" y="160" type="line" />
			<point x="130" y="160" type="line" />
		</contour>
		<contour>
			<point x="44" y="0" type="line" />
			<point x="36" y="0" type="line" />
			<point x="35" y="34" />
			<point x="42" y="60" type="qcurve" />
			<point x="58" y="110" type="line" />
			<point x="65" y="110" type="line" />
			<point x="65" y="75" type="line" />
		</contour>
		<contour>
			<point x="86" y="0" type="line" />
			<point x="65" y="75" type="line" />
			<point x="65" y="110" type="line" />
			<point x="72" y="110" type="line" />
			<point x="88" y="60" type="line" />
			<point x="95" y="34" />
			<point x="94" y="0" type="qcurve" />
		</contour>
	</outline>
</glyph>
<glyph name="X" format="2">
	<advance width="120" />
	<unicode hex="0058" />
	<outline>
		<contour>
			<point x="21" y="0" type="line" />
			<point x="0" y="0" type="line" />
			<point x="42" y="86" type="line" />
			<point x="52" y="66" type="line" />
		</contour>
		<contour>
			<point x="100" y="160" type="line" />
			<point x="58" y="74" type="line" />
			<point x="48" y="94" type="line" />
			<point x="79" y="160" type="line" />
		</contour>
		<contour>
			<point x="79" y="0" type="line" />
			<point x="40" y="80" type="line" />
			<point x="0" y="160" type="line" />
			<point x="21" y="160" type="line" />
			<point x="60" y="80" type="line" />
			<point x="100" y="0" type="line" />
		</contour>
	</outline>
</glyph>
<glyph name="Y" format="2">
	<advance width="120" />
	<unicode hex="0059" />
	<outline>
		<contour>
			<point x="100" y="160" type="line" />
			<point x="60" y="75" type="line" />
			<point x="48" y="90" type="line" />
			<point x="79" y="160" type="line" />
		</contour>
		<contour>
			<point x="0" y="160" type="line" />
			<point x="21" y="160" type="line" />
			<point x="52" y="90" type="line" />
			<point x="40" y="75" type="line" />
		</contour>
		<contour>
			<point x="40" y="0" type="line" />
			<point x="40" y="90" type="line" />
			<point x="60" y="90" type="line" />
			<point x="60" y="0" type="line" />
		</contour>
	</outline>
</glyph>
<glyph name="Z" format="2">
	<advance width="120" />
	<unicode hex="005A" />
	<outline>
		<contour>
			<point x="100" y="145" type="line" />
			<point x="80" y="142" type="line" />
			<point x="0" y="142" type="line" />
			<point x="0" y="160" type="line" />
			<point x="100" y="160" type="line" />
		</contour>
		<contour>
			<point x="0" y="15" type="line" />
			<point x="20" y="18" type="line" />
			<point x="100" y="18" type="line" />
			<point x="100" y="0" type="line" />
			<point x="0" y="0" type="line" />
		</contour>
		<contour>
			<point x="0" y="15" type="line" />
			<point x="77" y="142" type="line" />
			<point x="100" y="145" type="line" />
			<point x="23" y="18" type="line" />
		</contour>
	</outline>
</glyph>
<glyph name="a" format="2">
	<advance width="100" />
	<unicode hex="0061" />
	<outline>
		<contour>
			<point x="45" y="90" type="qcurve" />
			<point x="5" y="90" type="line" />
			<point x="5" y="110" type="line" />
			<point x="45" y="110" type="line" />
			<point x="59" y="110" />
			<point x="80" y="89" />
			<point x="80" y="75" type="qcurve" />
			<point x="80" y="0" type="line" />
			<point x="60" y="0" type="line" />
			<point x="60" y="75" type="line" />
			<point x="60" y="90" />
		</contour>
		<contour>
			<point x="18" y="34" type="qcurve" />
			<point x="18" y="29" />
			<point x="27" y="19" />
			<point x="32" y="19" type="qcurve" />
			<point x="40" y="19" type="line" />
			<point x="46" y="19" />
			<point x="58" y="28" />
			<point x="61" y="33" type="qcurve" />
			<point x="65" y="38" type="line" />
			<point x="70" y="25" type="line" />
			<point x="69" y="22" />
			<point x="63" y="13" />
			<point x="45" y="-1" />
			<point x="35" y="-1" type="qcurve" />
			<point x="22" y="-1" />
			<point x="0" y="21" />
			<point x="0" y="34" type="qcurve" />
			<point x="0" y="47" />
			<point x="19" y="67" />
			<point x="32" y="67" type="qcurve" />
			<point x="62" y="67" type="line" />
			<point x="62" y="50" type="line" />
			<point x="32" y="50" type="line" />
			<point x="18" y="50" />
		</contour>
	</outline>
</glyph>
<glyph name="c" format="2">
	<advance width="90" />
	<unicode hex="0063" />
	<outline>
		<contour>
			<point x="35" y="92" type="line" />
			<point x="20" y="92" />
			<point x="20" y="77" type="qcurve" />
			<point x="20" y="55" type="line" />
			<point x="0" y="55" type="line" />
			<point x="0" y="75" type="line" />
			<point x="0" y="89" />
			<point x="21" y="110" />
			<point x="35" y="110" type="qcurve" />
			<point x="70" y="110" type="line" />
			<point x="70" y="92" type="line" />
		</contour>
		<contour>
			<point x="35" y="18" type="qcurve" />
			<point x="70" y="18" type="line" />
			<point x="70" y="0" type="line" />
			<point x="35" y="0" type="line" />
			<point x="21" y="0" />
			<point x="0" y="21" />
			<point x="0" y="35" type="qcurve" />
			<point x="0" y="55" type="line" />
			<point x="20" y="55" type="line" />
			<point x="20" y="33" type="line" />
			<point x="20" y="18" />
		</contour>
	</outline>
</glyph>
<glyph name="d" format="2">
	<advance width="100" />
	<unicode hex="0064" />
	<outline>
		<contour>
			<point x="60" y="75" type="line" />
			<point x="60" y="81" />
			<point x="48" y="93" />
			<point x="43" y="93" type="qcurve" />
			<point x="32" y="93" type="line" />
			<point x="26" y="93" />
			<point x="18" y="81" />
			<point x="18" y="75" type="qcurve" />
			<point x="18" y="54" type="line" />
			<point x="0" y="54" type="line" />
			<point x="0" y="75" type="line" />
			<point x="0" y="90" />
			<point x="20" y="111" />
			<point x="38" y="111" type="qcurve" />
			<point x="47" y="111" />
			<point x="63" y="98" />
			<point x="66" y="92" type="qcurve" />
			<point x="70" y="85" type="line" />
		</contour>
		<contour>
			<point x="80" y="160" type="line" />
			<point x="80" y="0" type="line" />
			<point x="60" y="0" type="line" />
			<point x="60" y="160" type="line" />
		</contour>
		<contour>
			<point x="60" y="35" type="qcurve" />
			<point x="70" y="25" type="line" />
			<point x="58" y="-1" />
			<point x="38" y="-1" type="qcurve" />
			<point x="20" y="-1" />
			<point x="0" y="20" />
			<point x="0" y="35" type="qcurve" />
			<point x="0" y="56" type="line" />
			<point x="18" y="56" type="line" />
			<point x="18" y="35" type="line" />
			<point x="18" y="29" />
			<point x="26" y="17" />
			<point x="32" y="17" type="qcurve" />
			<point x="43" y="17" type="line" />
			<point x="48" y="17" />
			<point x="60" y="29" />
		</contour>
	</outline>
</glyph>
<glyph name="e" format="2">
	<advance width="100" />
	<unicode hex="0065" />
	<outline>
		<contour>
			<point x="55" y="46" type="qcurve" />
			<point x="0" y="46" type="line" />
			<point x="0" y="75" type="line" />
			<point x="0" y="90" />
			<point x="19" y="110" />
			<point x="33" y="110" type="qcurve" />
			<point x="50" y="110" type="line" />
			<point x="62" y="110" />
			<point x="80" y="92" />
			<point x="80" y="80" type="qcurve" />
			<point x="80" y="70" type="line" />
			<point x="80" y="60" />
			<point x="66" y="46" />
		</contour>
		<contour>
			<point x="33" y="92" type="line" />
			<point x="20" y="92" />
			<point x="20" y="77" type="qcurve" />
			<point x="20" y="64" type="line" />
			<point x="56" y="64" type="line" />
			<point x="62" y="64" />
			<point x="62" y="70" type="qcurve" />
			<point x="62" y="80" type="line" />
			<point x="62" y="84" />
			<point x="55" y="92" />
			<point x="51" y="92" type="qcurve" />
		</contour>
		<contour>
			<point x="35" y="18" type="qcurve" />
			<point x="76" y="18" type="line" />
			<point x="76" y="0" type="line" />
			<point x="35" y="0" type="line" />
			<point x="21" y="0" />
			<point x="0" y="21" />
			<point x="0" y="35" type="qcurve" />
			<point x="0" y="46" type="line" />
			<point x="20" y="46" type="line" />
			<point x="20" y="33" type="line" />
			<point x="20" y="18" />
		</contour>
	</outline>
</glyph>
<glyph name="f" format="2">
	<advance width="90" />
	<unicode hex="0066" />
	<outline>
		<contour>
			<point x="60" y="142" type="line" />
			<point x="52" y="142" />
			<point x="40" y="130" />
			<point x="40" y="122" type="qcurve" />
			<point x="40" y="0" type="line" />
			<point x="20" y="0" type="line" />
			<point x="20" y="120" type="line" />
			<point x="20" y="137" />
			<point x="43" y="160" />
			<point x="60" y="160" type="qcurve" />
			<point x="70" y="160" type="line" />
			<point x="70" y="142" type="line" />
		</contour>
		<contour>
			<point x="65" y="92" type="line" />
			<point x="0" y="92" type="line" />
			<point x="0" y="110" type="line" />
			<point x="65" y="110" type="line" />
		</contour>
	</outline>
</glyph>
<glyph name="g" format="2">
	<advance width="100" />
	<unicode hex="0067" />
	<outline>
		<contour>
			<point x="60" y="110" type="line" />
			<point x="80" y="110" type="line" />
			<point x="80" y="10" type="line" />
			<point x="80" y="-40" />
			<point x="35" y="-40" type="qcurve" />
			<point x="5" y="-40" type="line" />
			<point x="5" y="-22" type="line" />
			<point x="35" y="-22" type="line" />
			<point x="51" y="-22" />
			<point x="60" y="-8" />
			<point x="60" y="10" type="qcurve" />
		</contour>
		<contour>
			<point x="60" y="75" type="line" />
			<point x="60" y="81" />
			<point x="48" y="93" />
			<point x="43" y="93" type="qcurve" />
			<point x="32" y="93" type="line" />
			<point x="26" y="93" />
			<point x="18" y="81" />
			<point x="18" y="75" type="qcurve" />
			<point x="18" y="54" type="line" />
			<point x="0" y="54" type="line" />
			<point x="0" y="75" type="line" />
			<point x="0" y="90" />
			<point x="20" y="111" />
			<point x="38" y="111" type="qcurve" />
			<point x="47" y="111" />
			<point x="63" y="98" />
			<point x="66" y="92" type="qcurve" />
			<point x="70" y="85" type="line" />
		</contour>
		<contour>
			<point x="60" y="35" type="qcurve" />
			<point x="70" y="25" type="line" />
			<point x="58" y="-1" />
			<point x="38" y="-1" type="qcurve" />
			<point x="20" y="-1" />
			<point x="0" y="20" />
			<point x="0" y="35" type="qcurve" />
			<point x="0" y="56" type="line" />
			<point x="18" y="56" type="line" />
			<point x="18" y="35" type="line" />
			<point x="18" y="29" />
			<point x="26" y="17" />
			<point x="32" y="17" type="qcurve" />
			<point x="43" y="17" type="line" />
			<point x="48" y="17" />
			<point x="60" y="29" />
		</contour>
	</outline>
</glyph>
<glyph name="i" format="2">
	<advance width="40" />
	<unicode hex="0069" />
	<outline>
		<contour>
			<point x="24" y="155" />
			<point x="24" y="130" />
			<point x="-4" y="130" />
			<point x="-4" y="155" />
		</contour>
		<contour>
			<point x="0" y="0" type="line" />
			<point x="0" y="110" type="line" />
			<point x="20" y="110" type="line" />
			<point x="20" y="0" type="line" />
		</contour>
	</outline>
</glyph>
<glyph name="j" format="2">
	<advance width="40" />
	<unicode hex="006A" />
	<outline>
		<contour>
			<point x="-20" y="-22" type="line" />
			<point x="-12" y="-22" />
			<point x="0" y="-10" />
			<point x="0" y="0" type="qcurve" />
			<point x="20" y="0" type="line" />
			<point x="20" y="-17" />
			<point x="-3" y="-40" />
			<point x="-20" y="-40" type="qcurve" />
		</contour>
		<contour>
			<point x="0" y="0" type="line" />
			<point x="0" y="110" type="line" />
			<point x="20" y="110" type="line" />
			<point x="20" y="0" type="line" />
		</contour>
		<contour>
			<point x="24" y="155" />
			<point x="24" y="130" />
			<point x="-4" y="130" />
			<point x="-4" y="155" />
		</contour>
	</outline>
</glyph>
<glyph name="k" format="2">
	<advance width="100" />
	<unicode hex="006B" />
	<outline>
		<contour>
			<point x="0" y="160" type="line" />
			<point x="20" y="160" type="line" />
			<point x="20" y="0" type="line" />
			<point x="0" y="0" type="line" />
		</contour>
		<contour>
			<point x="80" y="110" type="line" />
			<point x="20" y="40" type="line" />
			<point x="9" y="52" type="line" />
			<point x="59" y="110" type="line" />
		</contour>
		<contour>
			<point x="59" y="0" type="line" />
			<point x="21" y="57" type="line" />
			<point x="35" y="67" type="line" />
			<point x="80" y="0" type="line" />
		</contour>
	</outline>
</glyph>
<glyph name="l" format="2">
	<advance width="40" />
	<unicode hex="006C" />
	<outline>
		<contour>
			<point x="0" y="160" type="line" />
			<point x="20" y="160" type="line" />
			<point x="20" y="0" type="line" />
			<point x="0" y="0" type="line" />
		</contour>
	</outline>
</glyph>
<glyph name="m" format="2">
	<advance width="140" />
	<unicode hex="006D" />
	<outline>
		<contour>
			<point x="20" y="75" type="qcurve" />
			<point x="10" y="85" type="line" />
			<point x="20" y="111" />
			<point x="37" y="111" type="qcurve" />
			<point x="70" y="111" />
			<point x="70" y="75" type="qcurve" />
			<point x="70" y="60" type="line" />
			<point x="52" y="60" type="line" />
			<point x="52" y="75" type="line" />
			<point x="52" y="93" />
			<point x="40" y="93" type="qcurve" />
			<point x="34" y="93" type="line" />
			<point x="29" y="93" />
			<point x="20" y="82" />
		</contour>
		<contour>
			<point x="70" y="75" type="qcurve" />
			<point x="60" y="85" type="line" />
			<point x="70" y="111" />
			<point x="87" y="111" type="qcurve" />
			<point x="120" y="111" />
			<point x="120" y="75" type="qcurve" />
			<point x="120" y="60" type="line" />
			<point x="102" y="60" type="line" />
			<point x="102" y="75" type="line" />
			<point x="102" y="93" />
			<point x="90" y="93" type="qcurve" />
			<point x="84" y="93" type="line" />
			<point x="79" y="93" />
			<point x="70" y="82" />
		</contour>
		<contour>
			<point x="52" y="0" type="line" />
			<point x="52" y="60" type="line" />
			<point x="70" y="60" type="line" />
			<point x="70" y="0" type="line" />
		</contour>
		<contour>
			<point x="102" y="0" type="line" />
			<point x="102" y="60" type="line" />
			<point x="120" y="60" type="line" />
			<point x="120" y="0" type="line" />
		</contour>
		<contour>
			<point x="0" y="0" type="line" />
			<point x="0" y="110" type="line" />
			<point x="20" y="110" type="line" />
			<point x="20" y="0" type="line" />
		</contour>
	</outline>
</glyph>
<glyph name="n" format="2">
	<advance width="100" />
	<unicode hex="006E" />
	<outline>
		<contour>
			<point x="0" y="0" type="line" />
			<point x="0" y="110" type="line" />
			<point x="20" y="110" type="line" />
			<point x="20" y="0" type="line" />
		</contour>
		<contour>
			<point x="20" y="75" type="qcurve" />
			<point x="10" y="85" type="line" />
			<point x="22" y="111" />
			<point x="42" y="111" type="qcurve" />
			<point x="60" y="111" />
			<point x="80" y="90" />
			<point x="80" y="75" type="qcurve" />
			<point x="80" y="54" type="line" />
			<point x="62" y="54" type="line" />
			<point x="62" y="75" type="line" />
			<point x="62" y="81" />
			<point x="54" y="93" />
			<point x="48" y="93" type="qcurve" />
			<point x="37" y="93" type="line" />
			<point x="32" y="93" />
			<point x="20" y="81" />
		</contour>
		<contour>
			<point x="62" y="0" type="line" />
			<point x="62" y="55" type="line" />
			<point x="80" y="55" type="line" />
			<point x="80" y="0" type="line" />
		</contour>
	</outline>
</glyph>
<glyph name="o" format="2">
	<advance width="100" />
	<unicode hex="006F" />
	<outline>
		<contour>
			<point x="0" y="35" type="qcurve" />
			<point x="0" y="75" type="line" />
			<point x="0" y="89" />
			<point x="21" y="110" />
			<point x="35" y="110" type="qcurve" />
			<point x="45" y="110" type="line" />
			<point x="59" y="110" />
			<point x="80" y="89" />
			<point x="80" y="75" type="qcurve" />
			<point x="80" y="35" type="line" />
			<point x="80" y="21" />
			<point x="59" y="0" />
			<point x="45" y="0" type="qcurve" />
			<point x="35" y="0" type="line" />
			<point x="21" y="0" />
			<point x="0" y="21" />
		</contour>
		<contour>
			<point x="34" y="92" type="line" />
			<point x="19" y="92" />
			<point x="19" y="77" type="qcurve" />
			<point x="19" y="33" type="line" />
			<point x="19" y="18" />
			<point x="34" y="18" type="qcurve" />
			<point x="46" y="18" type="line" />
			<point x="61" y="18" />
			<point x="61" y="33" type="qcurve" />
			<point x="61" y="77" type="line" />
			<point x="61" y="92" />
			<point x="46" y="92" type="qcurve" />
		</contour>
	</outline>
</glyph>
<glyph name="r" format="2">
	<advance width="80" />
	<unicode hex="0072" />
	<outline>
		<contour>
			<point x="20" y="75" type="qcurve" />
			<point x="10" y="85" type="line" />
			<point x="22" y="110" />
			<point x="42" y="110" type="qcurve" />
			<point x="60" y="110" type="line" />
			<point x="60" y="92" type="line" />
			<point x="37" y="92" type="line" />
			<point x="32" y="92" />
			<point x="20" y="81" />
		</contour>
		<contour>
			<point x="0" y="0" type="line" />
			<point x="0" y="110" type="line" />
			<point x="20" y="110" type="line" />
			<point x="20" y="0" type="line" />
		</contour>
	</outline>
</glyph>
<glyph name="s" format="2">
	<advance width="90" />
	<unicode hex="0073" />
	<outline>
		<contour>
			<point x="35" y="92" type="line" />
			<point x="19" y="92" />
			<point x="19" y="77" type="qcurve" />
			<point x="19" y="64" />
			<point x="35" y="64" type="qcurve" />
			<point x="35" y="46" type="line" />
			<point x="0" y="46" />
			<point x="0" y="77" type="qcurve" />
			<point x="0" y="92" />
			<point x="20" y="110" />
			<point x="35" y="110" type="qcurve" />
			<point x="66" y="110" type="line" />
			<point x="66" y="92" type="line" />
		</contour>
		<contour>
			<point x="35" y="18" type="line" />
			<point x="51" y="18" />
			<point x="51" y="33" type="qcurve" />
			<point x="51" y="46" />
			<point x="35" y="46" type="qcurve" />
			<point x="35" y="64" type="line" />
			<point x="70" y="64" />
			<point x="70" y="33" type="qcurve" />
			<point x="70" y="18" />
			<point x="50" y="0" />
			<point x="35" y="0" type="qcurve" />
			<point x="4" y="0" type="line" />
			<point x="4" y="18" type="line" />
		</contour>
	</outline>
</glyph>
<glyph name="t" format="2">
	<advance width="80" />
	<unicode hex="0074" />
	<outline>
		<contour>
			<point x="20" y="140" type="line" />
			<point x="40" y="140" type="line" />
			<point x="40" y="0" type="line" />
			<point x="20" y="0" type="line" />
		</contour>
		<contour>
			<point x="0" y="110" type="line" />
			<point x="60" y="110" type="line" />
			<point x="60" y="92" type="line" />
			<point x="0" y="92" type="line" />
		</contour>
	</outline>
</glyph>
<glyph name="u" format="2">
	<advance width="100" />
	<unicode hex="0075" />
	<outline>
		<contour>
			<point x="60" y="0" type="line" />
			<point x="60" y="110" type="line" />
			<point x="80" y="110" type="line" />
			<point x="80" y="0" type="line" />
		</contour>
		<contour>
			<point x="60" y="35" type="qcurve" />
			<point x="70" y="25" type="line" />
			<point x="69" y="22" />
			<point x="64" y="13" />
			<point x="47" y="-1" />
			<point x="38" y="-1" type="qcurve" />
			<point x="20" y="-1" />
			<point x="0" y="20" />
			<point x="0" y="35" type="qcurve" />
			<point x="0" y="56" type="line" />
			<point x="18" y="56" type="line" />
			<point x="18" y="35" type="line" />
			<point x="18" y="29" />
			<point x="26" y="17" />
			<point x="32" y="17" type="qcurve" />
			<point x="43" y="17" type="line" />
			<point x="48" y="17" />
			<point x="60" y="29" />
		</contour>
		<contour>
			<point x="0" y="55" type="line" />
			<point x="0" y="110" type="line" />
			<point x="18" y="110" type="line" />
			<point x="18" y="55" type="line" />
		</contour>
	</outline>
</glyph>
<glyph name="v" format="2">
	<advance width="110" />
	<unicode hex="0076" />
	<outline>
		<contour>
			<point x="35" y="0" type="line" />
			<point x="0" y="110" type="line" />
			<point x="20" y="110" type="line" />
			<point x="54" y="0" type="line" />
		</contour>
		<contour>
			<point x="55" y="0" type="line" />
			<point x="36" y="0" type="line" />
			<point x="70" y="110" type="line" />
			<point x="90" y="110" type="line" />
		</contour>
	</outline>
</glyph>
<glyph name="w" format="2">
	<advance width="150" />
	<unicode hex="0077" />
	<outline>
		<contour>
			<point x="29" y="0" type="line" />
			<point x="0" y="110" type="line" />
			<point x="20" y="110" type="line" />
			<point x="39" y="28" type="line" />
			<point x="39" y="0" type="line" />
		</contour>
		<contour>
			<point x="101" y="0" type="line" />
			<point x="91" y="0" type="line" />
			<point x="91" y="28" type="line" />
			<point x="110" y="110" type="line" />
			<point x="130" y="110" type="line" />
		</contour>
		<contour>
			<point x="44" y="0" type="line" />
			<point x="39" y="0" type="line" />
			<point x="39" y="28" type="line" />
			<point x="58" y="80" type="line" />
			<point x="65" y="80" type="line" />
			<point x="65" y="55" type="line" />
		</contour>
		<contour>
			<point x="86" y="0" type="line" />
			<point x="65" y="55" type="line" />
			<point x="65" y="80" type="line" />
			<point x="72" y="80" type="line" />
			<point x="91" y="28" type="line" />
			<point x="91" y="0" type="line" />
		</contour>
	</outline>
</glyph>
<glyph name="x" format="2">
	<advance width="110" />
	<unicode hex="0078" />
	<outline>
		<contour>
			<point x="0" y="0" type="line" />
			<point x="37" y="59" type="line" />
			<point x="47" y="44" type="line" />
			<point x="21" y="0" type="line" />
		</contour>
		<contour>
			<point x="90" y="110" type="line" />
			<point x="53" y="51" type="line" />
			<point x="43" y="66" type="line" />
			<point x="69" y="110" type="line" />
		</contour>
		<contour>
			<point x="69" y="0" type="line" />
			<point x="35" y="55" type="line" />
			<point x="0" y="110" type="line" />
			<point x="21" y="110" type="line" />
			<point x="55" y="55" type="line" />
			<point x="90" y="0" type="line" />
		</contour>
	</outline>
</glyph>
<glyph name="y" format="2">
	<advance width="110" />
	<unicode hex="0079" />
	<outline>
		<contour>
			<point x="20" y="-40" type="line" />
			<point x="34" y="0" type="line" />
			<point x="70" y="110" type="line" />
			<point x="90" y="110" type="line" />
			<point x="40" y="-40" type="line" />
		</contour>
		<contour>
			<point x="52" y="0" type="line" />
			<point x="34" y="0" type="line" />
			<point x="0" y="110" type="line" />
			<point x="20" y="110" type="line" />
		</contour>
	</outline>
</glyph>
<glyph name="z" format="2">
	<advance width="100" />
	<unicode hex="007A" />
	<outline>
		<contour>
			<point x="80" y="93" type="line" />
			<point x="60" y="92" type="line" />
			<point x="0" y="92" type="line" />
			<point x="0" y="110" type="line" />
			<point x="80" y="110" type="line" />
		</contour>
		<contour>
			<point x="0" y="17" type="line" />
			<point x="20" y="18" type="line" />
			<point x="80" y="18" type="line" />
			<point x="80" y="0" type="line" />
			<point x="0" y="0" type="line" />
		</contour>
		<contour>
			<point x="0" y="17" type="line" />
			<point x="57" y="92" type="line" />
			<point x="80" y="93" type="line" />
			<point x="23" y="18" type="line" />
		</contour>
	</outline>
</glyph>
<glyph name=".notdef" format="2">
	<advance width="88" />
	<outline>
		<contour>
			<point x="8" y="0" type="line" />
			<point x="8" y="160" type="line" />
			<point x="72" y="160" type="line" />
			<point x="72" y="0" type="line" />
		</contour>
		<contour>
			<point x="16" y="8" type="line" />
			<point x="64" y="8" type="line" />
			<point x="64" y="152" type="line" />
			<point x="16" y="152" type="line" />
		</contour>
	</outline>
</glyph>
